<svg width="336" height="305" viewBox="0 0 336 305" fill="none" xmlns="http://www.w3.org/2000/svg">
<g clip-path="url(#clip0_518_5408)">
<path d="M0.675649 250.336C3.6088 248.9 4.854 245.089 8.03619 244.095C11.3014 243.074 14.9263 245.089 17.9148 242.88C19.2153 241.914 20.1838 240.312 21.7611 239.732C23.1447 239.235 24.5836 239.787 25.9118 240.202C27.0463 240.561 28.1808 240.892 29.3153 241.251C33.8811 242.659 38.4192 244.04 42.9849 245.448C48.1594 247.022 53.3063 248.624 58.4808 250.198C58.9789 250.364 59.2002 249.563 58.7021 249.397C49.2386 246.498 39.8027 243.598 30.3392 240.699C28.1255 240.036 25.8288 239.014 23.5321 238.738C21.9271 238.545 20.6543 239.18 19.5197 240.229C17.9425 241.693 16.7526 243.046 14.4559 243.156C12.5466 243.267 10.6649 242.77 8.75563 243.074C4.82632 243.681 3.60879 247.961 0.288249 249.591C-0.209832 249.867 0.205238 250.585 0.675649 250.336Z" fill="#E8E8E8"/>
<path d="M50.4007 246.857C52.3654 247.354 53.915 245.393 55.6859 244.813C58.0656 244.012 60.6114 244.344 62.7697 245.586C63.2402 245.863 63.6552 245.145 63.1848 244.868C61.3585 243.791 59.2832 243.35 57.1802 243.626C56.267 243.736 55.4092 243.985 54.5791 244.344C53.3892 244.868 52.0057 246.387 50.6221 246.056C50.0963 245.918 49.875 246.719 50.4007 246.857Z" fill="#E8E8E8"/>
<path d="M71.7353 244.786C69.8813 243.267 68.1103 241.638 66.4501 239.898C65.6753 239.097 64.9282 238.241 64.2087 237.385C63.7936 236.888 63.3786 236.391 62.9912 235.894C62.7145 235.535 62.4377 235.176 62.1887 234.817C61.746 234.375 61.746 233.823 62.2164 233.215C62.5484 233.353 63.0742 233.022 62.7975 232.635C61.1095 230.371 59.8643 227.886 59.0619 225.179C58.8958 225.345 58.7298 225.511 58.5638 225.676C59.4769 225.925 60.141 226.394 60.6391 227.168C60.9158 227.609 61.6353 227.223 61.3586 226.753C57.2356 219.629 53.8597 212.118 51.3139 204.303C51.0926 204.441 50.8435 204.579 50.6221 204.717C62.2164 216.094 67.4739 231.917 77.2418 244.648C77.5739 245.062 78.2933 244.648 77.9613 244.233C68.1657 231.448 62.8528 215.57 51.2032 204.137C50.9265 203.861 50.3731 204.137 50.5115 204.551C53.0849 212.449 56.4608 220.016 60.6391 227.195C60.8882 227.057 61.1095 226.919 61.3586 226.781C60.7221 225.815 59.892 225.179 58.7852 224.903C58.4808 224.82 58.1764 225.097 58.2871 225.4C59.1172 228.162 60.3901 230.73 62.1057 233.05C62.2994 232.856 62.4931 232.663 62.6868 232.47C61.912 232.111 61.0542 232.47 60.8605 233.381C60.6115 234.679 62.1887 236.115 62.9082 237.026C65.3709 240.091 68.1657 242.88 71.2095 245.365C71.5692 245.697 72.1503 245.117 71.7353 244.786Z" fill="#E8E8E8"/>
<path d="M68.8297 227.527C63.7382 219.933 59.6152 211.786 56.5714 203.171C56.4884 203.336 56.3777 203.502 56.2947 203.668C57.2355 203.447 58.038 203.806 58.5637 204.634C58.8404 205.104 59.5045 204.69 59.2832 204.22C54.9941 194.969 50.6221 185.332 50.9265 174.921C50.6774 175.004 50.4007 175.059 50.1517 175.142C57.5399 190.33 64.5684 205.711 71.2095 221.231C71.4032 221.672 72.1226 221.341 71.9566 220.899C70.8497 217.585 69.7706 214.244 68.6637 210.93C68.138 209.301 67.5845 207.699 67.0588 206.07C66.6991 204.993 65.9243 202.646 67.4739 202.066C67.3078 202.011 67.1695 201.928 67.0034 201.873C68.9958 205.766 70.9604 209.66 72.9527 213.554C73.2018 214.023 73.9213 213.609 73.6722 213.14C71.5139 208.915 70.5177 204.248 70.7114 199.498C70.4347 199.526 70.158 199.581 69.9089 199.608C75.6645 213.885 82.3333 227.803 89.8322 241.251C90.0812 241.72 90.8007 241.306 90.5516 240.837C83.0804 227.444 76.4393 213.609 70.7114 199.388C70.5454 198.973 69.9089 199.001 69.9089 199.498C69.7152 204.386 70.7667 209.163 72.9804 213.554C73.2295 213.416 73.4508 213.278 73.6999 213.14C71.7075 209.246 69.7429 205.352 67.7506 201.459C67.6676 201.321 67.4462 201.21 67.2802 201.265C64.513 202.287 66.284 206.236 66.8928 208.086C68.3317 212.422 69.7429 216.785 71.1818 221.12C71.4308 221.01 71.6799 220.899 71.9289 220.789C65.2878 205.269 58.2593 189.888 50.8711 174.7C50.6774 174.314 50.0963 174.535 50.0963 174.921C49.7643 185.47 54.2193 195.273 58.5637 204.634C58.8128 204.496 59.0341 204.358 59.2832 204.22C58.5637 203.088 57.4015 202.591 56.0733 202.867C55.8519 202.922 55.7136 203.171 55.7966 203.364C58.8681 212.035 63.0188 220.264 68.138 227.913C68.4147 228.383 69.1341 227.968 68.8297 227.527Z" fill="#E8E8E8"/>
<path d="M14.1515 280.905C23.7257 276.294 33.8257 271.599 44.7558 272.704C49.9303 273.229 54.9388 274.72 60.0856 275.382C62.6867 275.714 65.3155 275.852 67.9166 275.548C70.3517 275.244 72.6484 274.361 75.0281 273.836C78.0996 273.146 80.8944 273.864 83.8552 274.692C86.2903 275.355 88.6977 275.907 91.2157 275.327C91.7415 275.217 91.5201 274.416 90.9944 274.526C85.9582 275.714 81.2264 272.096 76.1349 272.814C73.6169 273.173 71.2648 274.167 68.7744 274.609C66.1456 275.051 63.4615 274.996 60.8051 274.664C55.5752 274.057 50.4837 272.511 45.2262 271.931C40.0517 271.351 34.9325 272.013 29.9794 273.449C24.3345 275.106 18.9939 277.647 13.7364 280.187C13.2383 280.408 13.6811 281.126 14.1515 280.905Z" fill="#E8E8E8"/>
<path d="M70.3241 303.797C73.5616 302.417 76.7438 300.898 79.8153 299.186C81.4202 298.275 82.9975 297.336 84.5747 296.342C85.986 295.43 87.3972 294.132 88.9468 293.47C90.6901 292.752 93.3188 294.105 95.0621 294.63C96.9161 295.209 98.7701 295.762 100.596 296.342C104.387 297.501 108.178 298.661 111.942 299.821C112.44 299.987 112.661 299.186 112.163 299.02C108.123 297.778 104.055 296.535 100.015 295.292C98.0783 294.685 96.1413 294.105 94.2043 293.497C92.7101 293.028 90.8284 292.061 89.2512 292.448C87.7846 292.807 86.4564 294.077 85.2112 294.906C83.6062 295.955 81.946 296.977 80.2857 297.943C76.9375 299.849 73.4786 301.561 69.909 303.052C69.4109 303.273 69.8537 303.991 70.3241 303.797Z" fill="#E8E8E8"/>
<path d="M104.747 304.654C106.85 303.604 108.953 302.527 111.056 301.478C112.993 300.484 115.068 299.158 117.282 298.965C119.523 298.744 121.267 300.208 123.204 301.064C124.836 301.782 126.607 302.196 128.378 302.306C132.529 302.527 136.403 300.456 140.526 300.677C143.819 300.87 147.139 303.577 150.377 301.865C150.847 301.616 150.432 300.898 149.962 301.147C147.942 302.224 145.756 301.174 143.763 300.539C142.048 299.987 140.387 299.738 138.589 299.932C134.327 300.373 130.426 302.168 126.054 301.147C122.429 300.318 119.662 297.308 115.76 298.44C113.961 298.965 112.274 299.959 110.613 300.788C108.51 301.837 106.407 302.914 104.304 303.963C103.862 304.184 104.277 304.902 104.747 304.654Z" fill="#E8E8E8"/>
<path d="M120.907 298.661C119.191 297.17 117.642 295.513 116.369 293.608C115.788 292.752 115.262 291.841 114.764 290.929C114.515 290.46 114.294 289.99 114.1 289.521C113.934 289.134 113.768 288.775 113.629 288.389C113.38 287.975 113.491 287.588 113.962 287.229C114.211 287.119 114.46 287.008 114.709 286.898C111.665 282.424 109.756 277.343 109.119 271.986C108.87 272.096 108.649 272.179 108.4 272.29C108.898 272.925 109.396 273.56 109.922 274.223C110.226 274.609 110.807 274.112 110.586 273.726C105.771 265.137 103.197 255.472 103.142 245.642C102.893 245.752 102.672 245.835 102.423 245.946C104.304 247.464 105.743 249.342 106.629 251.579C106.878 251.468 107.127 251.358 107.376 251.247C105.217 246.691 104.775 241.555 106.048 236.695C105.771 236.695 105.522 236.695 105.245 236.695C110.918 252.904 116.563 269.086 122.235 285.296C122.401 285.793 123.204 285.572 123.038 285.075C120.188 276.763 118.776 268.037 118.859 259.228C118.61 259.338 118.389 259.421 118.14 259.532C119.828 261.051 120.879 262.956 121.267 265.193C121.35 265.662 122.097 265.552 122.069 265.082C121.986 263.398 121.876 261.686 121.793 260.001C121.571 260.112 121.377 260.25 121.156 260.36C122.623 261.299 122.899 263.784 123.37 265.331C123.868 266.988 124.366 268.645 124.892 270.329C125.916 273.753 126.967 277.15 127.991 280.574C130.066 287.395 132.142 294.243 134.217 301.064C134.383 301.561 135.185 301.368 135.019 300.843C132.778 293.497 130.564 286.124 128.323 278.779C127.244 275.189 126.137 271.599 125.058 268.009C124.504 266.159 123.951 264.337 123.397 262.487C123.038 261.354 122.623 260.333 121.599 259.67C121.35 259.504 120.962 259.725 120.962 260.029C121.045 261.713 121.156 263.425 121.239 265.11C121.516 265.082 121.793 265.027 122.042 264.999C121.654 262.625 120.492 260.554 118.693 258.952C118.417 258.703 118.002 258.869 117.974 259.256C117.891 268.12 119.302 276.929 122.18 285.324C122.457 285.241 122.706 285.186 122.982 285.103C117.31 268.893 111.665 252.711 105.992 236.501C105.854 236.142 105.3 236.087 105.19 236.501C103.862 241.61 104.36 246.94 106.601 251.689C106.795 252.104 107.542 251.8 107.348 251.358C106.407 248.983 104.941 246.967 102.921 245.366C102.644 245.145 102.201 245.283 102.201 245.669C102.257 255.638 104.858 265.469 109.756 274.167C109.977 274.002 110.198 273.836 110.42 273.67C109.922 273.035 109.423 272.4 108.898 271.737C108.676 271.461 108.151 271.682 108.178 272.041C108.815 277.564 110.752 282.783 113.879 287.367C114.155 287.754 114.709 287.505 114.626 287.036C114.487 286.262 113.574 285.986 112.938 286.456C111.776 287.284 112.91 289.245 113.325 290.184C114.902 293.691 117.254 296.756 120.16 299.269C120.741 299.573 121.322 298.993 120.907 298.661Z" fill="#E8E8E8"/>
<path d="M91.9629 236.722C91.6031 231.531 101.039 234.513 103.668 235.01C107.984 235.811 112.274 236.612 116.59 237.413C125.196 239.014 133.829 240.616 142.435 242.218C142.961 242.328 143.182 241.527 142.656 241.417C132.778 239.567 122.927 237.744 113.048 235.894C108.206 234.983 103.363 234.071 98.5209 233.188C96.7777 232.856 94.7577 232.497 93.1251 233.409C91.8798 234.071 91.0497 235.286 91.1604 236.722C91.1604 237.247 92.0182 237.247 91.9629 236.722Z" fill="#E8E8E8"/>
<path d="M136.707 241.306C139.585 241.61 141.356 238.876 143.597 237.551C145.507 236.446 147.167 237.302 149.132 237.689C151.318 238.131 153.559 238.186 155.773 237.91C156.298 237.854 156.298 237.026 155.773 237.081C153.282 237.385 150.792 237.275 148.357 236.667C146.89 236.28 145.562 235.811 144.096 236.391C141.494 237.385 139.723 240.809 136.707 240.478C136.182 240.423 136.182 241.251 136.707 241.306Z" fill="#E8E8E8"/>
<path d="M189.476 294.409C196.117 292.089 202.814 289.769 209.676 288.113C216.843 286.401 224.065 285.71 231.426 285.931C238.703 286.152 245.925 286.98 253.175 287.643C260.453 288.334 267.73 288.996 275.008 289.687C283.365 290.46 291.749 291.233 300.106 292.034C300.631 292.089 300.631 291.261 300.106 291.205C285.191 289.825 270.276 288.444 255.334 287.036C240.972 285.71 226.528 283.75 212.222 286.704C204.363 288.334 196.781 290.984 189.227 293.608C188.757 293.774 188.978 294.574 189.476 294.409Z" fill="#E8E8E8"/>
<path d="M218.725 267.236C223.678 266.187 228.326 264.116 233.003 262.238C238.011 260.25 243.075 258.869 248.443 258.4C253.867 257.93 259.318 258.206 264.714 258.538C270.138 258.869 275.561 259.256 281.012 259.642C287.349 260.112 293.714 260.636 300.05 261.189C300.576 261.244 300.576 260.415 300.05 260.36C288.816 259.366 277.581 258.51 266.319 257.792C255.61 257.102 245.068 256.826 234.857 260.609C229.433 262.625 224.176 265.193 218.476 266.408C218.005 266.546 218.199 267.347 218.725 267.236Z" fill="#E8E8E8"/>
<path d="M282.507 235.397C286.464 232.387 290.642 229.432 295.069 227.168C297.228 226.063 299.552 225.179 301.987 224.986C304.616 224.765 307.245 225.29 309.818 225.621C315.048 226.256 320.306 226.643 325.563 226.974C329.05 227.195 333.477 227.692 335.94 224.655C336.272 224.24 335.691 223.661 335.359 224.075C332.564 227.527 326.67 226.229 322.851 225.98C317.594 225.621 312.392 225.124 307.162 224.461C304.92 224.185 302.707 223.964 300.465 224.379C298.252 224.765 296.176 225.649 294.212 226.698C289.95 228.963 285.91 231.779 282.064 234.706C281.677 235.01 282.092 235.728 282.507 235.397Z" fill="#E8E8E8"/>
<path d="M130.177 230.84C134.106 227.886 138.063 224.958 141.992 222.004C145.756 219.187 149.27 216.232 154.195 215.984C158.844 215.763 163.604 216.288 168.225 216.674C173.206 217.088 178.159 217.641 183.084 218.331C187.235 218.911 192.188 220.457 196.117 218.303C196.588 218.055 196.173 217.337 195.702 217.585C193.682 218.69 191.441 218.69 189.2 218.414C186.792 218.11 184.385 217.696 181.977 217.364C177.329 216.729 172.652 216.205 167.948 215.818C163.327 215.431 158.54 214.879 153.919 215.155C149.63 215.404 146.448 217.613 143.099 220.126C138.644 223.44 134.217 226.781 129.762 230.095C129.347 230.454 129.762 231.172 130.177 230.84Z" fill="#E8E8E8"/>
<path d="M285.855 260.029C286.104 258.206 286.464 256.439 286.99 254.672C287.239 253.843 287.488 253.015 287.82 252.186C288.013 251.689 288.539 250.861 289.259 251.054C289.618 251.165 289.784 252.407 289.812 252.656C289.867 253.098 290.476 253.236 290.614 252.766C291.915 248.541 293.409 243.902 297.394 241.444C297.173 241.334 296.979 241.196 296.757 241.085C296.757 241.776 296.73 242.494 296.73 243.184C296.73 243.571 297.311 243.764 297.505 243.405C299.967 238.296 302.651 232.939 307.632 229.846C307.439 229.681 307.217 229.543 307.023 229.377C304.533 235.811 301.628 242.079 298.335 248.155C298.113 248.541 298.667 249.038 298.999 248.652C300.853 246.443 302.734 244.233 305.17 242.632C304.976 242.438 304.782 242.245 304.588 242.052C301.517 248.514 298.169 254.81 294.488 260.94C294.212 261.409 294.931 261.824 295.208 261.354C298.86 255.224 302.236 248.928 305.308 242.466C305.474 242.135 305.114 241.638 304.727 241.886C302.236 243.543 300.299 245.78 298.39 248.044C298.611 248.21 298.833 248.376 299.054 248.541C302.375 242.411 305.308 236.087 307.826 229.57C307.964 229.239 307.494 228.935 307.217 229.101C302.098 232.276 299.331 237.716 296.785 242.963C297.034 243.046 297.311 243.101 297.56 243.184C297.56 242.494 297.588 241.776 297.588 241.085C297.588 240.782 297.228 240.561 296.951 240.726C292.801 243.294 291.168 248.099 289.812 252.545C290.089 252.573 290.365 252.628 290.614 252.656C290.476 251.247 289.203 248.845 287.654 250.64C286.879 251.551 286.574 253.042 286.242 254.175C285.689 255.997 285.302 257.875 285.025 259.78C284.997 260.333 285.772 260.553 285.855 260.029Z" fill="#E8E8E8"/>
<path d="M92.5164 213.416C94.6747 212.256 96.8608 211.096 99.2405 210.461C101.759 209.798 104.249 210.019 106.767 210.351C111.776 211.013 116.784 211.676 121.765 212.339C122.291 212.422 122.291 211.593 121.765 211.51C116.424 210.792 111.056 210.019 105.716 209.384C103.253 209.08 100.901 209.08 98.521 209.771C96.252 210.433 94.149 211.566 92.0737 212.67C91.6032 212.974 92.046 213.664 92.5164 213.416Z" fill="#E8E8E8"/>
<path d="M260.84 26.1075C262.833 24.423 265.627 24.7544 267.813 25.8314C269.474 26.6322 270.83 28.2614 272.767 28.3443C274.565 28.3995 276.059 27.1845 277.581 26.3836C278.605 25.859 279.657 25.5 280.819 25.7485C282.064 25.997 283.143 26.715 284.278 27.2121C288.013 28.8413 290.504 26.5769 293.658 24.782C294.544 24.2849 295.485 23.8431 296.508 23.7603C297.809 23.6498 298.971 24.2297 300.133 24.7268C301.96 25.5 303.343 25.8037 305.197 25.0581C307.107 24.3126 308.656 24.423 310.565 25.1134C311.783 25.5552 312.945 26.1075 314.218 26.3836C316.127 26.8255 318.175 26.715 319.614 25.2514C320.001 24.8648 319.393 24.2849 319.033 24.6715C317.179 26.5493 314.356 25.6657 312.226 24.8372C310.067 24.0088 307.854 23.1251 305.557 23.9812C304.118 24.5335 303.15 24.9201 301.6 24.3954C300.548 24.0364 299.58 23.4565 298.501 23.1528C296.868 22.6557 295.346 22.9318 293.852 23.6774C292.136 24.5335 290.642 25.8866 288.844 26.6046C286.464 27.5434 284.61 26.3008 282.451 25.3895C280.874 24.7268 279.38 24.6163 277.803 25.3067C275.893 26.1627 274.039 28.0405 271.798 27.2397C270.608 26.8255 269.667 25.859 268.588 25.2514C267.675 24.7544 266.679 24.3954 265.655 24.2021C263.69 23.8431 261.781 24.1745 260.231 25.4724C259.844 25.8866 260.453 26.4665 260.84 26.1075Z" fill="#E8E8E8"/>
<path d="M270.802 44.968C271.328 44.968 271.328 44.1396 270.802 44.1396C270.276 44.1396 270.276 44.968 270.802 44.968Z" fill="#E8E8E8"/>
<path d="M276.336 47.978C277.637 45.6307 280.708 46.7629 282.617 47.5361C284.527 48.3093 286.242 48.7788 288.262 48.0884C289.923 47.5085 291.417 46.4039 293.132 46.0173C295.512 45.4651 296.868 47.4809 299.026 47.9504C302.402 48.6959 305.806 44.9404 308.988 46.5144C309.874 46.9562 310.482 47.5361 311.534 47.4533C312.502 47.3981 313.388 46.9286 314.329 46.7077C316.957 46.1002 319.697 46.5696 322.049 47.8675C322.519 48.116 322.934 47.3981 322.464 47.1495C320.97 46.3211 319.365 45.824 317.677 45.6584C316.819 45.5755 315.934 45.6031 315.076 45.7412C314.052 45.8793 313.111 46.3211 312.115 46.5144C310.759 46.7629 310.178 46.1002 309.071 45.6307C308.518 45.4098 307.909 45.2994 307.328 45.327C305.944 45.3822 304.616 45.9621 303.343 46.4316C301.711 47.0391 299.967 47.619 298.307 46.7905C296.896 46.1002 295.789 45.0508 294.129 45.0508C290.697 45.0785 288.29 48.3646 284.665 47.3705C281.981 46.6249 277.664 44.0015 275.672 47.5361C275.368 48.0332 276.087 48.4474 276.336 47.978Z" fill="#E8E8E8"/>
<path d="M249.495 81.0324C251.46 79.486 253.701 79.5688 255.86 80.563C257.049 81.1152 258.322 81.6399 259.567 80.8943C260.287 80.4525 260.757 79.7621 261.615 79.5136C262.528 79.2375 263.497 79.4308 264.382 79.6517C265.959 80.0383 267.481 80.7286 269.114 80.8391C271.051 80.9772 272.822 80.1487 274.704 79.9554C276.724 79.7621 278.135 80.9772 280.016 81.2533C281.843 81.5018 283.254 80.0383 285.08 80.3144C287.294 80.6458 289.48 81.3914 291.666 81.9437C292.192 82.0817 292.413 81.2809 291.887 81.1429C289.591 80.563 287.211 79.6793 284.859 79.4308C282.867 79.2099 281.428 80.8391 279.435 80.2316C277.581 79.6793 276.253 78.8785 274.261 79.1546C272.13 79.4584 270.193 80.2868 268.007 79.8174C266.319 79.4584 264.687 78.6576 262.943 78.5471C262.307 78.5195 261.643 78.5747 261.034 78.8233C260.259 79.127 259.844 79.7621 259.125 80.1764C257.464 81.1429 255.223 79.0994 253.452 78.9613C251.764 78.8233 250.215 79.4032 248.886 80.4249C248.471 80.7839 249.08 81.3638 249.495 81.0324Z" fill="#E8E8E8"/>
<path d="M90.8561 20.7779C91.3819 20.7779 91.3819 19.9495 90.8561 19.9495C90.3303 19.9495 90.3303 20.7779 90.8561 20.7779Z" fill="#E8E8E8"/>
<path d="M93.2911 21.413C93.7892 18.9553 97.0544 20.5294 98.2442 21.2749C99.6001 22.131 101.039 22.9042 102.699 22.4348C104.498 21.9101 105.715 20.3637 107.708 20.2532C109.589 20.1704 111.416 21.0264 113.187 21.5787C114.709 22.0481 116.314 22.3795 117.891 21.9929C119.745 21.5511 121.322 20.2532 123.204 19.9218C126.912 19.2867 130.26 22.2967 134.023 21.1369C134.521 20.9712 134.327 20.1704 133.802 20.3361C129.872 21.5787 126.137 18.0993 122.152 19.3419C120.104 19.9771 118.389 21.413 116.147 21.3302C114.072 21.2473 112.191 20.2532 110.226 19.7562C108.676 19.3696 107.099 19.2591 105.605 19.9495C104.747 20.3361 104 20.9712 103.142 21.3854C101.731 22.0481 100.541 21.6616 99.2681 20.9436C97.8845 20.1428 96.6946 19.2039 95.0067 19.3419C93.8168 19.4248 92.7653 20.0323 92.5439 21.2473C92.4056 21.7168 93.2081 21.9377 93.2911 21.413Z" fill="#E8E8E8"/>
<path d="M95.8093 182.653C99.1021 181.273 102.423 183.73 105.743 183.896C107.459 183.979 109.119 183.565 110.807 183.233C112.938 182.819 114.764 182.791 116.812 183.647C118.057 184.172 119.191 184.503 120.464 184.006C121.184 183.73 121.793 183.261 122.512 183.012C123.314 182.736 124.145 182.681 125.002 182.681C127.963 182.736 130.924 183.758 133.746 182.432C134.217 182.211 133.802 181.493 133.331 181.714C130.315 183.123 126.967 181.576 123.785 181.908C122.263 182.073 121.267 182.957 119.856 183.371C118.168 183.868 116.507 182.432 114.847 182.184C111.277 181.632 107.902 183.62 104.304 182.902C101.427 182.322 98.521 180.637 95.5879 181.88C95.1175 182.073 95.3389 182.874 95.8093 182.653Z" fill="#E8E8E8"/>
<path d="M35.9841 141.977C38.3987 141.977 40.3562 140.024 40.3562 137.614C40.3562 135.205 38.3987 133.251 35.9841 133.251C33.5695 133.251 31.6121 135.205 31.6121 137.614C31.6121 140.024 33.5695 141.977 35.9841 141.977Z" fill="#005096"/>
<path d="M290.476 111.988C292.172 111.988 293.548 110.616 293.548 108.923C293.548 107.23 292.172 105.858 290.476 105.858C288.78 105.858 287.405 107.23 287.405 108.923C287.405 110.616 288.78 111.988 290.476 111.988Z" fill="#005096"/>
<path d="M262.833 5.20334C264.086 5.20334 265.102 4.18955 265.102 2.93897C265.102 1.68839 264.086 0.674591 262.833 0.674591C261.579 0.674591 260.563 1.68839 260.563 2.93897C260.563 4.18955 261.579 5.20334 262.833 5.20334Z" fill="#005096"/>
<path d="M162.884 201.569C164.443 201.569 165.707 200.308 165.707 198.752C165.707 197.197 164.443 195.936 162.884 195.936C161.325 195.936 160.062 197.197 160.062 198.752C160.062 200.308 161.325 201.569 162.884 201.569Z" fill="#005096"/>
<path d="M32.7742 41.5991C34.5622 41.5991 36.0117 40.1526 36.0117 38.3682C36.0117 36.5839 34.5622 35.1374 32.7742 35.1374C30.9861 35.1374 29.5366 36.5839 29.5366 38.3682C29.5366 40.1526 30.9861 41.5991 32.7742 41.5991Z" fill="#005096"/>
<path d="M144.4 154.956C145.424 154.956 146.254 154.128 146.254 153.106C146.254 152.084 145.424 151.256 144.4 151.256C143.376 151.256 142.546 152.084 142.546 153.106C142.546 154.128 143.376 154.956 144.4 154.956Z" fill="#005096"/>
<path d="M319.393 170.696C320.951 170.696 322.215 169.435 322.215 167.88C322.215 166.324 320.951 165.063 319.393 165.063C317.834 165.063 316.57 166.324 316.57 167.88C316.57 169.435 317.834 170.696 319.393 170.696Z" fill="#005096"/>
<path d="M11.7441 217.254C12.9056 217.254 13.8471 216.314 13.8471 215.155C13.8471 213.996 12.9056 213.057 11.7441 213.057C10.5827 213.057 9.64111 213.996 9.64111 215.155C9.64111 216.314 10.5827 217.254 11.7441 217.254Z" fill="#005096"/>
<path d="M97.7461 54.1637C95.3387 59.0514 92.9036 63.9392 90.4962 68.8269C100.458 82.1646 110.419 95.4748 120.381 108.812C122.955 104.919 125.5 100.942 128.074 96.9383C134.134 87.439 139.917 78.0501 145.451 68.7441C143.57 63.9668 141.66 59.1619 139.779 54.3846C138.561 53.7495 137.344 53.1419 136.126 52.5068C124.338 52.5344 112.55 52.562 100.79 52.5896C99.7384 53.1419 98.7422 53.6666 97.7461 54.1637Z" fill="white"/>
<path d="M90.8283 69.0478C92.9313 64.4362 95.0897 59.8522 97.3034 55.2959C97.5247 54.8264 96.8329 54.3846 96.5839 54.8816C94.3702 59.438 92.2118 64.022 90.1088 68.6336C89.8874 69.103 90.6069 69.5449 90.8283 69.0478Z" fill="#404753"/>
<path d="M90.2748 69.5449C100.015 82.8826 109.949 96.0547 120.077 109.116C120.409 109.53 120.99 108.951 120.658 108.536C110.585 95.53 100.707 82.4132 90.9943 69.1306C90.6899 68.7164 89.9705 69.1306 90.2748 69.5449Z" fill="#404753"/>
<path d="M97.4971 54.8264C98.6592 54.2189 99.7938 53.5838 100.956 52.9763C101.426 52.7277 101.011 52.0098 100.541 52.2583C99.3787 52.8658 98.2442 53.5009 97.082 54.1085C96.5839 54.3846 97.0266 55.075 97.4971 54.8264Z" fill="#404753"/>
<path d="M101.648 53.0315C110.281 53.0315 118.942 53.0315 127.576 53.0315C128.101 53.0315 128.101 52.2031 127.576 52.2031C118.942 52.2031 110.281 52.2031 101.648 52.2031C101.122 52.2031 101.122 53.0315 101.648 53.0315Z" fill="#404753"/>
<path d="M145.839 68.6612C144.095 64.0496 142.297 59.4932 140.443 54.9092C140.249 54.4122 139.447 54.6331 139.64 55.1302C141.494 59.6865 143.293 64.2705 145.036 68.8821C145.23 69.3792 146.032 69.1582 145.839 68.6612Z" fill="#404753"/>
<path d="M144.925 69.0755C136.818 82.3304 128.544 95.5024 120.104 108.564C119.8 109.006 120.519 109.42 120.824 108.978C129.264 95.9166 137.537 82.7722 145.645 69.4897C145.922 69.0479 145.202 68.606 144.925 69.0755Z" fill="#404753"/>
<path d="M139.945 54.0533C138.976 53.4457 138.008 52.8106 137.039 52.2031C136.596 51.9269 136.181 52.6173 136.624 52.9211C137.593 53.5286 138.561 54.1637 139.53 54.7712C140 55.075 140.415 54.357 139.945 54.0533Z" fill="#404753"/>
<path d="M136.098 52.1203C128.876 52.1203 121.654 52.1203 114.459 52.1203C113.934 52.1203 113.934 52.9487 114.459 52.9487C121.682 52.9487 128.904 52.9487 136.098 52.9487C136.624 52.9487 136.624 52.1203 136.098 52.1203Z" fill="#404753"/>
<path d="M91.1605 69.462C96.1136 67.3357 101.067 65.2094 106.02 63.0831C106.518 62.8622 106.075 62.1718 105.605 62.3651C100.652 64.4915 95.6985 66.6178 90.7454 68.7441C90.275 68.965 90.69 69.683 91.1605 69.462Z" fill="#404753"/>
<path d="M97.6354 54.5779C100.679 55.0473 103.668 55.7101 106.628 56.5385C107.154 56.6766 107.376 55.8758 106.85 55.7377C103.889 54.8816 100.901 54.2465 97.8567 53.7771C97.331 53.6942 97.0819 54.495 97.6354 54.5779Z" fill="#404753"/>
<path d="M106.407 56.4005C107.071 58.4716 107.652 60.5427 108.15 62.669C108.261 63.1936 109.064 62.9727 108.953 62.448C108.455 60.3217 107.874 58.2507 107.21 56.1796C107.044 55.6825 106.241 55.8758 106.407 56.4005Z" fill="#404753"/>
<path d="M107.68 56.4833C115.096 56.4833 122.484 56.4833 129.9 56.4833C130.426 56.4833 130.426 55.6549 129.9 55.6549C122.484 55.6549 115.096 55.6549 107.68 55.6549C107.154 55.6549 107.154 56.4833 107.68 56.4833Z" fill="#404753"/>
<path d="M129.54 56.649C129.264 58.1678 128.987 59.7142 128.71 61.233C128.627 61.7577 129.43 61.9786 129.513 61.4539C129.789 59.9351 130.066 58.3887 130.343 56.8699C130.426 56.3452 129.623 56.1243 129.54 56.649Z" fill="#404753"/>
<path d="M108.593 62.7241C115.068 62.7241 121.543 62.7241 128.046 62.7241C128.572 62.7241 128.572 61.8957 128.046 61.8957C121.571 61.8957 115.096 61.8957 108.593 61.8957C108.067 61.8957 108.067 62.7241 108.593 62.7241Z" fill="#404753"/>
<path d="M130.703 56.4833C133.719 55.8482 136.707 55.2131 139.723 54.5779C140.249 54.4675 140.028 53.6667 139.502 53.7771C136.486 54.4123 133.497 55.0474 130.481 55.6825C129.955 55.793 130.177 56.5938 130.703 56.4833Z" fill="#404753"/>
<path d="M129.319 62.4756C132.114 62.9174 134.715 64.4915 137.261 65.6789C139.972 66.9491 142.656 68.2194 145.368 69.4897C145.839 69.7106 146.281 68.9926 145.783 68.7717C142.906 67.4186 140.055 66.0931 137.178 64.74C134.743 63.5802 132.224 62.1166 129.54 61.6748C129.015 61.592 128.793 62.3928 129.319 62.4756Z" fill="#404753"/>
<path d="M108.842 63.9944C112.44 78.7957 116.009 93.6246 119.606 108.426C119.745 108.951 120.519 108.73 120.409 108.205C116.812 93.4037 113.242 78.5748 109.645 63.7735C109.506 63.2488 108.704 63.4697 108.842 63.9944Z" fill="#404753"/>
<path d="M128.157 64.9885C124.781 79.2375 121.986 93.6522 119.828 108.15C119.745 108.674 120.547 108.895 120.63 108.371C122.788 93.8731 125.583 79.486 128.959 65.2094C129.098 64.6847 128.295 64.4638 128.157 64.9885Z" fill="#404753"/>
<path d="M128.433 37.3466C129.679 34.171 130.37 30.8296 130.481 27.4054C130.509 26.8808 129.679 26.8808 129.651 27.4054C129.54 30.7468 128.849 34.0053 127.631 37.1257C127.437 37.6227 128.24 37.8161 128.433 37.3466Z" fill="#404753"/>
<path d="M134.106 37.8988C136.762 34.8889 139.751 32.2379 143.099 30.0011C143.542 29.6974 143.127 28.9794 142.684 29.2831C139.281 31.5475 136.209 34.2537 133.525 37.3189C133.165 37.7055 133.746 38.2854 134.106 37.8988Z" fill="#404753"/>
<path d="M139.557 43.0075C142.989 41.9858 146.53 41.5992 150.1 41.8753C150.626 41.9029 150.626 41.0745 150.1 41.0469C146.447 40.7708 142.85 41.1574 139.336 42.2067C138.838 42.3724 139.032 43.1732 139.557 43.0075Z" fill="#404753"/>
<path d="M81.2541 23.6498C81.5861 29.1175 78.5146 34.3366 73.5891 36.7114C73.3124 36.8495 73.3401 37.2637 73.5891 37.4294C78.0995 40.1356 80.1749 45.1062 81.3648 49.9939C81.5031 50.5186 82.2779 50.2977 82.1672 49.773C80.922 44.6644 78.7083 39.5005 74.0042 36.7114C74.0042 36.9599 74.0042 37.1809 74.0042 37.4294C79.1787 34.9165 82.4439 29.366 82.0842 23.6498C82.0565 23.1251 81.2264 23.1251 81.2541 23.6498Z" fill="#E8E8E8"/>
<path d="M81.5584 23.6498C81.1987 29.3936 84.4639 34.9441 89.6384 37.4294C89.6384 37.1809 89.6384 36.9599 89.6384 36.7114C84.9066 39.5281 82.6929 44.692 81.4477 49.8282C81.3094 50.3529 82.1118 50.5738 82.2502 50.0491C83.4401 45.1338 85.5154 40.1356 90.0535 37.4294C90.3025 37.2913 90.3302 36.8495 90.0535 36.7114C85.128 34.3366 82.0288 29.1175 82.3609 23.6498C82.4162 23.1251 81.5861 23.1251 81.5584 23.6498Z" fill="#E8E8E8"/>
<path d="M216.29 230.951C217.258 230.537 218.586 229.929 220.108 229.073C222.654 227.665 223.927 226.947 224.702 225.815C225.698 224.323 225.31 223.523 226.611 222.031C226.805 221.783 227.718 220.816 228.908 220.292C230.955 219.436 232.865 220.457 236.047 221.59C238.98 222.639 241.277 223.136 245.87 224.158C247.696 224.572 249.91 224.986 253.12 225.98C254.033 226.256 254.753 226.505 255.251 226.671C255.306 227.251 255.334 228.742 254.365 230.095C253.922 230.702 253.314 231.199 252.345 231.641C250.104 232.691 247.973 232.497 246.174 232.414C242.3 232.249 243.905 232.801 234.774 232.967C232.782 232.994 231.149 232.994 230.014 232.994C228.603 233.961 227.192 234.955 225.753 235.977C223.318 237.744 220.994 239.511 218.78 241.251C217.95 237.827 217.12 234.375 216.29 230.951Z" fill="#404753"/>
<path d="M204.751 195.604C202.758 196.654 202.537 197.04 195.121 203.336C183.555 213.14 182.282 213.664 171.794 222.805C161.75 231.531 159.868 233.712 157.959 236.584C153.199 243.847 152.148 249.922 151.843 252.877C151.428 256.853 150.875 262.376 154.389 266.739C156.603 269.473 159.481 270.605 160.449 270.964C163.355 272.069 165.734 271.931 170.023 271.627C175.724 271.213 180.068 270.108 181.784 269.639C183.665 269.114 188.037 267.816 193.516 265.11C198.663 262.569 200.877 260.692 207.905 255.969C211.032 253.871 215.653 250.806 221.464 247.271C221.824 244.51 221.52 242.356 221.215 241.002C220.496 237.799 219.029 235.59 217.397 233.16C216.068 231.172 214.795 229.653 213.91 228.659C215.985 227.085 218.697 224.82 221.547 221.783C223.457 219.739 226.473 216.481 228.991 211.897C232.09 206.264 235.189 200.575 233.197 196.654C230.07 190.496 215.183 190.22 204.751 195.604Z" fill="white"/>
<path opacity="0.18" d="M229.544 198.614C227.967 202.26 225.366 207.423 221.215 212.946C215.183 220.927 209.095 225.345 199.908 231.89C173.925 250.391 166.952 254.616 167.727 256.384C168.778 258.786 183.416 254.478 185.547 253.843C201.098 249.259 212.554 242.19 219.721 237.026C217.895 234.237 216.068 231.448 214.242 228.686C216.483 227.085 219.583 224.544 222.488 220.761C224.093 218.69 226.528 215.487 228.105 210.654C229.71 205.849 229.766 201.569 229.544 198.614Z" fill="#9B9797"/>
<path d="M204.64 195.577C194.789 202.895 185.187 210.572 175.945 218.607C171.518 222.446 167.09 226.284 162.94 230.399C159.259 234.044 155.828 238.075 153.753 242.88C151.594 247.851 150.986 253.595 151.511 258.979C151.954 263.425 153.587 267.899 157.654 270.219C161.916 272.621 167.284 272.372 171.988 271.875C177.771 271.295 183.472 269.887 188.867 267.706C200.904 262.818 210.34 253.678 221.713 247.63C222.184 247.381 221.769 246.663 221.298 246.912C211.807 251.965 203.727 259.256 194.208 264.309C189.227 266.96 183.859 268.893 178.325 270.08C173.206 271.157 167.45 271.986 162.248 270.992C159.813 270.522 157.461 269.528 155.717 267.706C154.029 265.911 153.116 263.563 152.646 261.161C151.622 255.942 152.092 250.032 153.808 245.007C155.524 239.981 158.872 235.756 162.524 232C166.315 228.107 170.466 224.517 174.534 220.955C184.357 212.339 194.54 204.11 205.055 196.323C205.47 195.991 205.083 195.273 204.64 195.577Z" fill="#404753"/>
<path d="M177.522 252.186C186.598 248.679 194.817 243.433 202.62 237.689C206.466 234.872 210.257 231.945 214.021 229.018C217.729 226.118 221.27 223.053 224.148 219.325C224.48 218.911 223.761 218.497 223.429 218.911C220.496 222.722 216.815 225.787 213.052 228.742C209.344 231.641 205.609 234.513 201.79 237.302C194.153 242.88 186.156 248.017 177.301 251.413C176.803 251.579 177.024 252.38 177.522 252.186Z" fill="#404753"/>
<path d="M213.606 228.935C218.946 233.409 221.769 240.34 221.021 247.271C220.966 247.796 221.796 247.796 221.852 247.271C222.599 240.147 219.666 232.967 214.187 228.355C213.799 227.996 213.218 228.576 213.606 228.935Z" fill="#404753"/>
<path d="M220.966 239.566C222.543 239.097 223.927 237.772 225.255 236.833C226.915 235.673 228.548 234.513 230.208 233.353C230.651 233.049 230.236 232.332 229.793 232.635C228.299 233.685 226.777 234.762 225.283 235.811C223.899 236.777 222.377 238.269 220.745 238.766C220.219 238.904 220.44 239.705 220.966 239.566Z" fill="#404753"/>
<path d="M216.4 231.337C219.527 230.04 222.405 228.272 225.006 226.091C225.421 225.732 224.812 225.152 224.425 225.511C221.962 227.61 219.195 229.294 216.207 230.537C215.708 230.758 215.93 231.558 216.4 231.337Z" fill="#404753"/>
<path d="M224.702 225.732C225.227 225.732 225.227 224.903 224.702 224.903C224.176 224.903 224.176 225.732 224.702 225.732Z" fill="#404753"/>
<path d="M225.698 224.738C226.168 223.633 226.666 222.418 227.552 221.562C228.742 220.402 230.181 220.568 231.703 220.899C234.525 221.534 237.292 222.418 240.059 223.219C242.633 223.937 245.206 224.572 247.863 224.876C249.412 225.041 250.713 225.235 252.096 225.925C253.12 226.422 254.006 226.919 255.14 227.03C255.666 227.085 255.666 226.256 255.14 226.201C253.618 226.063 252.428 225.014 250.989 224.544C249.55 224.075 247.946 224.102 246.451 223.854C243.186 223.329 240.004 222.335 236.849 221.396C235.3 220.954 233.75 220.513 232.173 220.154C231.011 219.905 229.793 219.601 228.631 219.96C226.611 220.568 225.643 222.722 224.895 224.517C224.702 225.014 225.504 225.235 225.698 224.738Z" fill="#404753"/>
<path d="M230.098 233.961C236.019 233.077 241.885 232.939 247.862 232.829C249.938 232.801 252.151 232.552 253.812 231.199C255.223 230.04 256.025 228.355 255.638 226.56C255.527 226.035 254.725 226.256 254.836 226.781C255.361 229.294 253.092 231.144 250.851 231.696C248.554 232.249 246.064 231.973 243.712 232.028C239.063 232.111 234.47 232.497 229.876 233.188C229.35 233.243 229.599 234.044 230.098 233.961Z" fill="#404753"/>
<path d="M251.1 228.465C253.148 227.002 255.223 225.538 257.271 224.075C257.409 223.136 257.852 221.092 259.54 219.353C260.038 218.828 261.2 217.613 262.943 217.282C264.769 216.923 266.181 217.751 267.758 218.469C270.304 219.629 272.766 220.071 277.637 221.01C281.483 221.728 283.42 222.087 286.187 221.948C289.95 221.728 292.634 220.733 294.239 222.307C294.405 222.473 295.097 223.219 295.042 224.13C294.959 225.29 293.714 226.035 292.717 226.615C288.373 229.101 285.938 229.819 285.938 229.819C279.795 231.613 276.696 232.525 274.039 232.746C271.881 232.911 268.809 232.994 265.101 232.414C264.022 236.115 260.757 238.489 257.686 238.296C253.729 238.048 250.076 233.602 251.1 228.465Z" fill="#404753"/>
<path d="M211.364 204.054C211.973 202.204 213.107 199.857 215.238 199.084C216.622 198.587 217.894 198.918 218.31 199.029C220.883 199.664 226.168 198.752 236.711 196.957C241.941 196.074 248.554 194.776 256.164 192.843C256.191 194.251 256.164 196.101 256.081 198.255C255.887 203.088 255.389 206.733 255.278 207.589C254.808 211.013 253.978 216.702 251.46 223.605C250.823 225.373 250.187 226.836 249.744 227.83C250.823 228.327 251.985 228.99 253.12 229.929C257.796 233.657 259.152 238.931 259.595 241.168C258.931 241.969 257.935 243.156 256.662 244.509C251.515 249.977 246.756 253.042 237.679 258.648C232.09 262.1 227.994 264.613 221.436 268.479C213.467 273.173 207.02 276.818 198.995 279.11C197.003 279.69 193.848 280.463 189.864 280.049C187.927 279.856 184.44 279.497 181.092 277.067C176.803 273.974 175.447 269.445 174.893 267.457C173.648 263.011 174.119 258.841 175.281 254.506C176.083 251.468 178.989 241.389 189.089 230.039C191.109 227.775 196.864 222.666 208.32 212.449C211.087 209.991 213.356 207.976 214.878 206.65C213.716 205.766 212.554 204.91 211.364 204.054Z" fill="white"/>
<path opacity="0.18" d="M248.997 196.405C248.36 198.835 247.337 202.342 245.787 206.457C231.647 243.847 200.046 260.001 202.62 264.033C204.502 267.015 222.543 259.587 235.549 251.772C245.289 245.918 252.539 239.649 257.381 234.927C256.606 233.795 255.417 232.249 253.618 230.785C251.875 229.377 250.214 228.521 248.969 227.996C249.827 226.753 250.962 224.876 251.93 222.473C252.566 220.927 253.12 219.27 253.839 215.901C255.002 210.571 255.472 206.346 255.61 205.021C255.942 201.845 256.247 197.731 256.191 192.871C253.784 194.03 251.404 195.218 248.997 196.405Z" fill="#9B9797"/>
<path d="M255.776 192.843C255.804 198.062 255.472 203.281 254.753 208.473C254.088 213.14 253.258 217.944 251.543 222.363C249.689 227.14 246.506 230.619 242.66 233.906C238.731 237.247 234.774 240.533 230.817 243.819C226.279 247.602 221.713 251.358 217.175 255.141C216.76 255.472 217.341 256.052 217.756 255.721C226.085 248.817 234.414 241.941 242.688 234.955C246.34 231.862 249.661 228.659 251.653 224.213C253.59 219.905 254.531 215.183 255.278 210.544C256.219 204.69 256.662 198.78 256.606 192.843C256.606 192.291 255.776 192.291 255.776 192.843Z" fill="#404753"/>
<path d="M211.834 204.828C212.969 205.435 214.104 206.043 215.266 206.65C215.736 206.899 216.151 206.181 215.681 205.932C214.546 205.325 213.412 204.717 212.25 204.11C211.779 203.861 211.364 204.579 211.834 204.828Z" fill="#404753"/>
<path d="M215.266 206.319C205.415 214.327 195.066 222.252 186.847 231.973C179.764 240.34 173.925 250.944 173.953 262.183C173.953 267.126 175.309 272.29 178.961 275.797C182.614 279.331 187.899 280.712 192.88 280.463C198.967 280.16 204.751 277.757 210.174 275.106C215.985 272.262 221.492 268.893 227.026 265.552C238.426 258.648 251.155 252.214 259.706 241.693C260.038 241.279 259.457 240.699 259.125 241.113C251.958 249.95 241.885 255.61 232.283 261.409C226.998 264.613 221.768 267.871 216.373 270.909C211.087 273.891 205.581 276.735 199.742 278.42C194.263 279.994 188.148 280.325 182.973 277.592C177.993 274.996 175.447 269.97 174.921 264.502C173.897 253.457 179.459 242.466 186.183 234.071C194.568 223.605 205.525 215.266 215.874 206.871C216.262 206.567 215.681 205.987 215.266 206.319Z" fill="#404753"/>
<path d="M249.55 228.162C254.753 230.647 258.377 235.562 259.235 241.251C259.318 241.776 260.121 241.555 260.038 241.03C259.18 235.148 255.361 229.984 249.993 227.444C249.495 227.223 249.08 227.941 249.55 228.162Z" fill="#404753"/>
<path d="M251.211 228.88C252.317 228.438 253.203 227.692 254.144 226.974C255.251 226.118 256.385 225.29 257.492 224.434C257.907 224.102 257.492 223.385 257.077 223.716C256.081 224.461 255.085 225.207 254.088 225.98C253.12 226.726 252.151 227.637 250.989 228.079C250.519 228.272 250.713 229.073 251.211 228.88Z" fill="#404753"/>
<path d="M257.907 224.102C258.46 222.473 259.125 220.871 260.01 219.38C261.228 217.337 263.054 217.558 265.101 218.082C268.284 218.883 271.328 220.098 274.537 220.816C280.763 222.197 287.155 222.666 293.52 222.252C294.046 222.225 294.046 221.396 293.52 221.424C286.021 221.921 278.467 221.148 271.217 219.104C269.474 218.607 267.786 217.972 266.042 217.475C264.714 217.088 263.137 216.646 261.753 216.923C260.508 217.171 259.789 218.11 259.18 219.159C258.322 220.651 257.658 222.252 257.105 223.881C256.938 224.378 257.741 224.599 257.907 224.102Z" fill="#404753"/>
<path d="M259.097 237.44C261.172 235.866 263.22 234.292 265.295 232.718C265.71 232.387 265.295 231.669 264.88 232C262.805 233.574 260.757 235.148 258.682 236.722C258.267 237.053 258.682 237.771 259.097 237.44Z" fill="#404753"/>
<path d="M265.268 232.525C272.019 233.988 278.909 232.884 285.302 230.454C288.207 229.349 291.528 228.106 294.018 226.229C295.761 224.931 296.01 222.446 293.714 221.562C293.215 221.369 292.994 222.169 293.492 222.363C294.737 222.832 294.876 224.185 294.018 225.124C293.603 225.594 293.022 225.897 292.468 226.229C291.334 226.864 290.172 227.444 289.009 227.996C286.547 229.156 284.001 230.15 281.372 230.923C276.198 232.414 270.774 232.911 265.461 231.752C264.963 231.613 264.742 232.414 265.268 232.525Z" fill="#404753"/>
<path d="M193.156 113.259C197.362 109.779 203.644 105.582 212.028 103.096C215.957 101.937 220.883 100.501 227.413 101.053C237.43 101.909 244.32 106.824 246.756 108.619C250.574 111.408 253.175 114.363 254.78 116.434C255.085 135.792 255.5 155.177 256.025 174.535C256.191 180.5 256.357 186.492 256.551 192.457C252.622 194.887 247.115 197.62 240.142 199.222C223.816 202.95 210.23 197.979 204.723 195.577C204.695 190.689 204.391 183.344 202.897 174.535C200.462 160.065 196.671 154.238 194.291 141.784C193.101 135.35 191.967 125.685 193.156 113.259Z" fill="#005096"/>
<path d="M243.186 118.036C241.83 119.527 241.581 121.211 241.664 127.673C241.719 134.466 242.079 139.105 242.301 144.49C242.467 148.384 242.605 151.477 242.522 155.508C242.439 160.589 242.107 164.759 241.802 167.548C239.091 170.586 236.683 172.961 234.885 174.673C230.845 178.511 226.445 182.653 219.942 186.547C217.369 188.066 215.155 189.17 213.661 189.861C212.305 189.64 210.783 189.308 209.123 188.894C205.193 187.9 203.561 187.016 200.6 187.016C199.715 187.016 196.92 187.016 196.643 188.01C196.394 188.839 197.944 190.137 199.161 190.772C200.296 191.352 200.794 191.186 201.928 191.711C203.201 192.318 204.031 193.202 204.529 193.865C204.004 194.61 203.201 195.742 202.316 197.206C201.292 198.918 201.07 199.581 199.881 201.624C198.635 203.778 197.999 204.855 197.446 205.407C196.588 206.208 196.062 206.374 192.216 208.086C188.397 209.798 187.733 210.185 187.733 210.654C187.733 211.124 188.48 211.234 191.441 212.504C193.848 213.526 194.07 213.747 195.315 214.106C196.864 214.548 197.805 214.824 198.94 214.575C200.738 214.216 201.901 212.863 202.399 212.145C202.648 212.366 203.256 212.836 204.059 212.863C204.695 212.863 205.221 212.615 205.636 212.283C207.379 211.041 208.237 208.749 209.953 206.181C210.257 205.739 211.336 204.11 213.08 202.287C214.159 201.127 215.155 200.271 215.875 199.691C216.843 199.47 218.282 199.139 219.998 198.642C226.666 196.737 231.481 194.445 235.521 192.512C237.873 191.379 240.53 189.888 245.815 186.933C250.408 184.365 252.788 182.929 254.891 180.113C255.112 179.809 256.247 178.29 257.243 176.053C257.547 175.363 258.627 172.905 259.208 168.598C259.484 166.692 259.484 165.643 259.512 159.678C259.567 152.084 259.567 152.995 259.567 152.222C259.54 141.094 258.959 142.088 258.765 131.87C258.737 130.904 258.71 128.281 257.907 124.967C257.049 121.377 255.97 119.775 255.361 118.975C254.587 117.953 253.646 116.738 252.041 116.047C249.108 114.75 245.206 115.799 243.186 118.036Z" fill="white"/>
<path opacity="0.25" d="M252.068 116.02C252.733 118.201 253.535 121.349 254.088 125.16C254.753 129.772 255.002 134.853 253.507 148.135C252.262 159.236 251.653 164.787 250.048 169.978C247.752 177.379 246.091 182.764 241.028 187.016C237.762 189.75 234.193 191.02 227.026 193.533C221.768 195.383 217.258 196.488 214.159 197.178C211.945 200.161 208.652 203.944 203.976 207.534C200.323 210.35 196.809 212.283 193.904 213.609C194.319 213.885 196.034 214.99 198.359 214.686C201.07 214.327 202.537 212.394 202.786 212.035C203.312 212.422 204.087 212.836 204.944 212.698C206.715 212.422 207.656 209.909 208.127 208.776C209.15 206.429 211.198 203.198 215.791 199.664C218.835 198.863 222.958 197.648 227.745 195.825C234.414 193.257 238.897 190.772 243.712 188.093C251.432 183.785 253.175 182.018 254.448 180.306C256.773 177.186 257.741 173.982 258.156 172.574C258.903 170.061 259.042 167.244 259.318 161.749C259.512 157.662 259.512 154.514 259.512 152.139C259.512 148.052 259.429 145.015 259.346 142.392C259.235 138.581 259.014 134.107 258.46 128.75C258.045 124.856 257.741 123.31 256.856 121.57C255.5 118.809 253.48 117.042 252.068 116.02Z" fill="#9B9797"/>
<path d="M242.771 117.925C241.332 121.515 241.166 125.381 241.249 129.219C241.332 133.444 241.553 137.642 241.747 141.867C242.135 150.427 242.411 159.015 241.387 167.548C241.332 168.073 242.162 168.073 242.218 167.548C243.214 159.209 242.992 150.786 242.605 142.419C242.411 138.277 242.19 134.135 242.079 129.965C241.969 125.961 242.052 121.929 243.573 118.146C243.767 117.649 242.965 117.428 242.771 117.925Z" fill="#404753"/>
<path d="M242.992 166.83C240.447 168.239 238.399 170.282 236.434 172.408C234.304 174.7 232.173 176.937 229.793 178.981C224.923 183.206 219.444 186.685 213.578 189.391C213.08 189.612 213.522 190.33 213.993 190.109C219.638 187.513 224.923 184.2 229.655 180.196C232.007 178.235 234.165 176.081 236.241 173.844C238.399 171.497 240.557 169.122 243.38 167.576C243.878 167.272 243.463 166.554 242.992 166.83Z" fill="#404753"/>
<path d="M213.771 189.446C210.728 188.811 207.656 188.148 204.612 187.458C203.09 187.127 201.541 186.713 199.991 186.436C199.023 186.271 197.999 186.188 197.141 186.74C195.813 187.596 195.813 189.17 197.003 190.109C197.861 190.799 198.967 191.103 199.991 191.435C201.652 191.959 203.063 192.622 204.142 194.03C204.474 194.445 205.193 194.03 204.861 193.616C203.893 192.373 202.731 191.49 201.236 190.965C200.213 190.606 199.078 190.385 198.137 189.861C197.473 189.502 196.615 188.949 197.113 187.955C197.584 187.016 198.774 187.099 199.632 187.237C201.928 187.569 204.225 188.231 206.522 188.756C208.874 189.281 211.226 189.778 213.578 190.275C214.076 190.358 214.297 189.557 213.771 189.446Z" fill="#404753"/>
<path d="M203.478 194.169C202.26 196.405 201.015 198.614 199.798 200.851C199.189 201.928 198.663 203.088 197.944 204.137C197.196 205.214 196.2 205.767 195.038 206.319C192.852 207.341 190.5 208.169 188.397 209.356C187.456 209.909 186.847 210.903 187.65 211.869C188.646 213.057 190.611 212.587 191.939 212.366C193.765 212.063 195.508 211.455 197.169 210.682C200.628 209.025 203.561 206.429 205.664 203.226C205.968 202.784 205.249 202.37 204.944 202.812C203.09 205.684 200.517 208.003 197.501 209.605C196.062 210.351 194.512 210.958 192.935 211.317C192.05 211.538 191.109 211.731 190.168 211.759C189.31 211.814 189.089 211.925 188.674 211.069C188.148 210.571 188.203 210.24 188.812 210.074C189.006 209.992 189.172 209.909 189.365 209.826C191.136 208.997 192.935 208.197 194.706 207.368C196.09 206.733 197.445 206.181 198.386 204.938C199.493 203.475 200.268 201.735 201.153 200.133C202.177 198.283 203.201 196.433 204.197 194.61C204.446 194.113 203.727 193.699 203.478 194.169Z" fill="#404753"/>
<path d="M216.124 200.216C223.512 198.145 230.679 195.384 237.541 191.959C240.945 190.247 244.265 188.397 247.503 186.354C250.408 184.531 253.48 182.681 255.555 179.892C255.859 179.45 255.14 179.036 254.836 179.478C252.677 182.405 249.301 184.31 246.258 186.188C243.158 188.093 239.948 189.861 236.683 191.49C230.015 194.776 223.069 197.427 215.902 199.443C215.404 199.553 215.625 200.354 216.124 200.216Z" fill="#404753"/>
<path d="M243.324 118.671C245.621 114.17 251.515 115.191 254.42 118.395C257.907 122.261 258.073 127.922 258.46 132.837C259.291 143.579 259.457 154.404 258.793 165.146C258.46 170.365 257.686 175.888 254.199 180.03C253.867 180.444 254.448 181.024 254.78 180.61C257.907 176.854 258.986 172.105 259.429 167.355C260.01 161.28 260.01 155.122 259.955 149.019C259.899 142.64 259.595 136.234 259.014 129.882C258.571 125.105 257.713 119.831 253.756 116.655C250.38 113.949 244.736 114.032 242.577 118.257C242.356 118.726 243.075 119.14 243.324 118.671Z" fill="#404753"/>
<path d="M191.192 212.836C193.212 213.747 195.647 215.128 197.944 215.128C200.157 215.1 201.79 213.278 203.284 211.897C207.573 207.92 211.862 203.944 216.151 199.995C216.539 199.636 215.958 199.056 215.57 199.415C211.945 202.784 208.32 206.125 204.695 209.494C203.09 210.958 201.43 213.057 199.41 213.968C197.03 215.045 193.765 213.112 191.635 212.145C191.136 211.897 190.721 212.615 191.192 212.836Z" fill="#404753"/>
<path d="M202.454 212.256C203.367 213.968 205.387 213.278 206.411 212.09C208.431 209.715 210.008 206.844 211.724 204.275C212.028 203.834 211.309 203.419 211.004 203.861C209.925 205.463 208.846 207.065 207.767 208.666C207.158 209.55 204.474 214.327 203.173 211.842C202.924 211.372 202.205 211.787 202.454 212.256Z" fill="#404753"/>
<path d="M196.034 210.903C196.864 211.345 197.888 211.787 198.801 211.345C199.272 211.096 199.466 210.71 199.687 210.268C200.074 209.522 200.462 208.942 201.181 208.473C201.624 208.169 201.209 207.451 200.766 207.755C200.102 208.197 199.549 208.749 199.161 209.467C198.884 209.992 198.718 210.627 197.999 210.682C197.473 210.737 196.892 210.406 196.449 210.185C196.007 209.964 195.564 210.654 196.034 210.903Z" fill="#404753"/>
<path d="M190.362 53.1143C189.393 55.0749 188.425 58.361 188.12 59.438C187.678 60.9844 186.681 64.6019 186.128 69.4068C185.824 72.0577 185.492 74.9573 185.768 78.7957C185.907 80.6182 186.1 83.4901 187.179 87.0524C187.899 89.4824 188.95 92.9894 191.801 96.5793C194.291 99.6997 197.141 101.66 199.41 102.848C200.849 102.875 202.592 102.793 204.529 102.434C208.016 101.771 210.728 100.473 212.554 99.4236C212.803 100.832 213.135 102.323 213.55 103.87C214.408 107.073 215.459 109.889 216.511 112.32C217.645 112.126 219.001 111.795 220.44 111.132C225.006 109.006 227.192 105.085 227.967 103.455C227.552 101.854 227.22 100.114 226.915 98.319C225.864 91.6087 226.141 85.6164 226.805 80.7563C227.386 80.9496 228.327 81.1981 229.489 81.1429C231.758 81.0048 233.307 79.7622 234.082 79.0994C234.746 78.5471 237.762 75.8685 237.652 71.8921C237.624 70.9532 237.569 68.6612 235.936 67.4185C234.414 66.2863 232.367 66.7006 230.872 67.0043C229.157 67.3633 227.884 68.0813 227.109 68.5783C227.69 66.6729 228.908 61.7852 227.109 56.0966C226.722 54.8816 224.148 47.1496 216.566 43.8082C206.273 39.2243 193.904 46.0174 190.362 53.1143Z" fill="white"/>
<path opacity="0.24" d="M221.63 53.28C221.851 55.8481 222.018 59.5761 221.63 63.9944C220.44 77.3873 215.127 86.6934 213.744 89.013C211.641 92.5476 208.044 97.6839 202.288 102.737C204.004 102.516 205.968 102.13 208.071 101.384C213.855 99.3408 217.728 95.8337 219.831 93.5417C219.998 96.6069 220.523 100.335 221.768 104.422C222.322 106.162 222.931 107.763 223.567 109.199C225.034 107.294 226.473 105.388 227.939 103.455C227.635 101.66 227.358 99.755 227.164 97.7944C226.528 91.8573 226.528 86.3896 226.86 81.5295C228.105 81.5571 229.904 81.4467 231.813 80.7011C240.17 77.3873 244.929 64.2153 240.419 57.0355C240.225 56.7318 239.229 55.1854 237.181 53.8047C230.845 49.552 222.792 52.7829 221.63 53.28Z" fill="#9B9797"/>
<path d="M188.342 58.6096C187.788 56.7042 187.013 53.0591 187.816 48.5856C188.065 47.2048 188.923 42.7589 191.967 39.2519C196.422 34.1432 202.011 35.1097 209.261 32.514C213.854 30.8848 220.163 27.4606 226.556 19.3972C225.974 22.3795 225.393 25.3895 224.812 28.3718C225.808 28.648 229.157 29.366 232.588 27.6815C238.288 24.8924 238.786 18.1545 238.814 17.8508C239.506 19.3972 240.751 22.8214 240.197 27.1844C239.81 30.1668 238.731 32.4035 237.956 33.7566C238.288 34.1156 240.059 35.9382 242.107 35.662C244.597 35.3307 246.922 31.9341 246.257 27.5434C246.811 29.1727 247.475 31.8513 247.309 35.1374C247.088 39.1414 245.759 42.1514 244.874 43.7807C245.095 43.974 246.506 45.2442 248.499 44.9957C250.242 44.7748 251.736 43.5045 252.317 41.7096C252.179 43.5597 251.847 46.2383 250.768 49.3035C249.301 53.4457 248.084 53.7771 247.475 56.7318C246.506 61.371 248.997 62.945 248.333 67.0872C247.779 70.5666 245.51 72.7481 242.633 75.5372C237.403 80.5906 231.398 83.3244 226.362 84.8432C226.583 83.2968 226.832 81.7504 227.054 80.204C227.69 80.5906 228.797 81.1153 230.18 81.0601C233.003 80.9496 234.774 78.4367 235.715 77.0836C236.794 75.5648 238.593 72.9691 237.624 70.18C236.822 67.9156 234.691 66.9767 234.497 66.8939C232.007 65.8445 228.797 66.7834 226.722 69.324C225.559 64.7676 224.425 60.2388 223.263 55.6825C219.333 53.1972 215.432 50.7395 211.502 48.2542C209.565 47.8952 204.28 47.1772 198.359 49.8006C192.382 52.4516 189.338 56.9527 188.342 58.6096Z" fill="#005096"/>
<path d="M187.927 58.4991C185.575 67.2805 184.163 76.6142 186.322 85.5888C188.093 92.879 192.575 101.191 200.213 103.566C200.711 103.731 200.932 102.931 200.434 102.765C192.769 100.39 188.48 91.7468 186.903 84.4567C185.049 75.8962 186.46 67.0596 188.701 58.7201C188.867 58.223 188.065 58.0021 187.927 58.4991Z" fill="#404753"/>
<path d="M200.821 103.428C213.578 102.13 224.231 92.9342 227.22 80.4525C227.33 79.9278 226.556 79.7069 226.417 80.2316C223.512 92.2991 213.246 101.329 200.821 102.599C200.296 102.654 200.268 103.483 200.821 103.428Z" fill="#404753"/>
<path d="M226.5 80.6734C232.201 84.1528 237.762 76.8626 238.122 71.754C238.316 69.0478 237.071 66.9767 234.387 66.2035C231.896 65.4855 229.184 66.2311 227.413 68.1089C227.054 68.4955 227.635 69.0754 227.995 68.6888C229.461 67.1148 231.675 66.4244 233.806 66.8939C234.912 67.1424 236.13 67.7499 236.766 68.744C237.458 69.821 237.375 71.3122 237.209 72.4996C236.545 76.7798 231.786 82.9102 226.915 79.9278C226.473 79.6793 226.03 80.3973 226.5 80.6734Z" fill="#404753"/>
<path d="M226.445 80.6182C225.366 88.2674 225.753 96.027 227.579 103.538C227.718 104.063 228.52 103.842 228.382 103.317C226.583 95.9442 226.196 88.3226 227.247 80.8391C227.303 80.3145 226.5 80.0935 226.445 80.6182Z" fill="#404753"/>
<path d="M212.139 99.534C212.997 104.008 214.325 108.343 216.151 112.54C216.373 113.037 217.092 112.596 216.871 112.126C215.072 108.012 213.772 103.731 212.941 99.3131C212.831 98.7885 212.056 99.0094 212.139 99.534Z" fill="#404753"/>
<path d="M216.732 112.651C222.073 111.795 226.583 108.122 228.603 103.124C228.797 102.627 227.995 102.406 227.801 102.903C225.892 107.653 221.547 111.049 216.511 111.85C215.985 111.933 216.207 112.734 216.732 112.651Z" fill="#404753"/>
<path d="M212.803 100.5C213.938 100.556 214.712 99.7825 215.57 99.1197C216.705 98.2361 217.784 97.2972 218.78 96.3031C220.634 94.4529 222.128 92.3266 223.097 89.8965C223.29 89.3995 222.488 89.1786 222.294 89.6756C221.436 91.8295 220.108 93.7349 218.503 95.3918C217.784 96.165 217.009 96.8554 216.207 97.5457C215.321 98.2913 214.048 99.7273 212.803 99.672C212.277 99.6444 212.277 100.473 212.803 100.5Z" fill="#404753"/>
<path d="M212.858 100.059C215.21 98.5401 217.396 96.8004 219.444 94.895C219.831 94.536 219.25 93.9285 218.863 94.3151C216.871 96.1929 214.74 97.8774 212.443 99.3685C211.973 99.6171 212.416 100.335 212.858 100.059Z" fill="#404753"/>
<path d="M196.588 60.1008C195.038 67.1424 194.153 74.2946 193.959 81.5019C193.959 81.9161 194.512 82.0542 194.734 81.7228C195.813 80.0107 196.892 78.271 197.971 76.5589C198.248 76.1171 197.529 75.6753 197.252 76.1447C196.173 77.8568 195.094 79.5965 194.014 81.3086C194.263 81.3915 194.54 81.4467 194.789 81.5295C194.983 74.405 195.868 67.3081 197.39 60.3493C197.501 59.797 196.698 59.5761 196.588 60.1008Z" fill="#404753"/>
<path d="M197.695 91.8849C197.03 90.6423 196.588 89.3168 196.477 87.9084C196.394 86.9143 196.615 82.8826 198.497 84.4842C199.493 85.3403 199.355 87.2181 199.382 88.4607C199.382 89.0406 199.382 89.6481 199.327 90.228C199.299 90.6423 199.244 91.0565 199.161 91.4431C198.442 91.9401 197.888 91.9125 197.529 91.3879C197.169 91.0013 196.56 91.5812 196.947 91.9678C198.137 93.1828 199.687 93.238 200.019 91.3326C200.268 89.9795 200.268 88.5436 200.157 87.1905C200.074 86.1135 200.074 84.5671 199.272 83.7387C198.082 82.5236 196.394 83.6558 195.924 84.9537C195.066 87.2733 195.896 90.2004 197.003 92.2991C197.224 92.7686 197.944 92.3544 197.695 91.8849Z" fill="#404753"/>
<path d="M203.422 67.0319C204.253 70.9256 209.372 71.2293 210.894 67.6395C211.087 67.1424 210.285 66.9215 210.091 67.4185C208.846 70.3457 204.861 69.7934 204.225 66.811C204.114 66.314 203.312 66.5073 203.422 67.0319Z" fill="#404753"/>
<path d="M201.79 57.4498C202.841 55.1026 205.553 53.9704 208.044 54.4951C210.617 55.0473 212.582 57.0356 213.855 59.2171C214.131 59.6866 214.851 59.2723 214.574 58.8029C213.107 56.29 210.783 54.0532 207.795 53.6114C205.11 53.2248 202.233 54.4951 201.07 57.008C200.849 57.5326 201.569 57.9468 201.79 57.4498Z" fill="#404753"/>
<path d="M185.575 58.3611C186.322 56.8147 187.622 55.1302 189.532 55.1578C191.358 55.1854 192.686 56.7871 193.599 58.1954C193.876 58.6372 194.595 58.223 194.319 57.7812C193.267 56.0967 191.69 54.357 189.532 54.3294C187.318 54.3018 185.768 56.1243 184.883 57.9469C184.634 58.4163 185.353 58.8305 185.575 58.3611Z" fill="#404753"/>
<path d="M190.472 70.8704C190.961 70.8704 191.358 69.053 191.358 66.8111C191.358 64.5692 190.961 62.7518 190.472 62.7518C189.983 62.7518 189.587 64.5692 189.587 66.8111C189.587 69.053 189.983 70.8704 190.472 70.8704Z" fill="#404753"/>
<path d="M193.018 114.556C192.935 115.578 192.824 116.986 192.769 118.616C192.52 124.194 192.741 128.419 192.824 129.551C193.046 133.224 193.544 138.028 194.706 143.607C193.599 144.877 191.939 146.755 189.808 148.964C185.768 153.189 183.693 155.343 180.372 157.579C176.664 160.065 174.091 160.838 172.707 161.197C170.964 161.611 169.304 161.998 167.284 161.556C163.991 160.81 162.026 158.38 161.307 157.441C159.481 155.122 159.066 152.857 158.318 148.439C157.765 145.208 157.654 142.751 157.488 138.001C157.405 135.736 157.295 132.975 157.35 129.275C157.405 125.105 157.627 120.162 158.235 114.639C158.512 112.154 158.899 109.089 159.508 105.609C159.038 104.946 158.54 104.284 158.014 103.593C157.461 102.875 156.935 102.185 156.381 101.495C154.97 102.682 153.587 103.897 152.175 105.085C151.816 105.223 151.179 105.444 150.404 105.361C148.938 105.223 148.08 104.201 147.776 103.87C146.42 102.323 146.613 100.362 146.669 99.9759C148.578 97.9048 150.487 95.8614 152.424 93.7903C152.452 92.6029 152.618 91.0565 153.089 89.3444C153.448 88.0741 153.891 87.0248 154.306 86.1411C154.666 85.4231 155.164 84.6223 155.8 83.8215C156.935 82.3303 158.152 81.281 159.149 80.563C158.346 80.922 158.152 80.922 158.097 80.8668C157.959 80.6459 159.259 79.0166 161.086 78.8509C162.109 78.7405 162.912 79.1271 163.465 79.3756C164.323 79.7898 164.904 80.3145 165.264 80.7011C166.979 79.2375 168.695 77.774 170.411 76.338C171.019 76.697 171.628 77.1112 172.237 77.5254C173.648 78.4919 174.921 79.4584 176.056 80.3973C175.641 80.922 175.115 81.5019 174.451 82.0818C173.344 83.0483 172.237 83.6282 171.379 84.0148C171.905 84.1805 172.846 84.5671 173.316 85.4784C173.787 86.362 173.593 87.3285 173.316 88.5436C173.122 89.372 172.873 90.0347 172.68 90.4766C172.79 91.6364 172.846 93.2104 172.514 94.9777C171.988 97.8772 170.77 100.031 169.94 101.274C169.913 102.351 169.885 104.035 169.94 106.106C170.162 114.639 171.407 119.637 172.209 125.933C172.68 129.523 173.15 134.853 173.012 141.563C173.648 141.149 174.561 140.486 175.585 139.63C178.186 137.449 179.847 135.267 182.033 132.064C184.191 128.943 185.602 126.624 187.512 123.531C188.701 121.515 190.611 118.45 193.018 114.556Z" fill="white"/>
<path opacity="0.24" d="M167.865 89.3443C167.284 90.6146 166.703 91.9125 166.122 93.238C164.434 97.2144 163.05 101.025 161.916 104.67C161.667 110.414 161.528 115.219 161.418 118.698C161.279 123.973 161.611 130.269 162.22 142.861C162.469 148.052 162.69 151.201 165.126 153.493C167.671 155.867 171.213 155.923 173.205 155.923C183.831 155.895 191.773 146.865 193.959 144.242C190.998 149.268 187.622 152.554 185.325 154.487C182.724 156.668 179.376 159.402 174.174 160.755C169.774 161.915 167.782 161.666 167.256 161.556C163.465 160.645 161.362 157.497 160.615 156.42C158.816 153.741 158.235 150.952 157.903 144.96C157.571 138.802 157.931 137.172 158.042 128.695C158.125 120.604 157.82 118.312 158.429 112.706C158.789 109.42 159.232 106.714 159.591 104.891C158.512 103.759 157.433 102.627 156.354 101.522C155.441 102.323 154.5 103.096 153.559 103.897C152.95 104.422 152.314 104.946 151.705 105.444C151.152 105.499 150.349 105.471 149.491 105.112C147.278 104.173 145.894 101.439 146.586 100.501C147.029 99.8654 148.191 100.362 149.796 100.362C152.563 100.39 154.417 98.9817 158.097 96.3308C160.698 94.4254 163.687 92.2991 167.865 89.3443Z" fill="#9B9797"/>
<path d="M192.658 114.335C186.266 123.144 181.535 133.251 173.455 140.762C173.067 141.121 173.648 141.701 174.036 141.342C182.171 133.776 186.93 123.614 193.378 114.75C193.71 114.335 192.99 113.921 192.658 114.335Z" fill="#404753"/>
<path d="M168.861 162.191C179.819 161.473 187.678 152.305 194.263 144.518C194.595 144.104 194.014 143.524 193.682 143.938C187.29 151.56 179.542 160.672 168.889 161.39C168.335 161.39 168.335 162.219 168.861 162.191Z" fill="#404753"/>
<path d="M163.659 84.4014C163.714 86.583 165.153 88.4607 167.256 89.0682C167.782 89.2063 168.003 88.4055 167.478 88.2674C165.734 87.7704 164.544 86.1964 164.489 84.4014C164.461 83.8768 163.631 83.8768 163.659 84.4014Z" fill="#404753"/>
<path d="M164.517 84.1529C164.793 81.7504 169.082 83.4901 170.245 84.0977C171.379 84.6776 172.514 85.2575 172.763 86.6382C172.956 87.6875 172.624 88.7921 172.348 89.8138C172.209 90.3385 173.012 90.5594 173.15 90.0347C173.538 88.654 173.953 87.08 173.372 85.7269C172.818 84.3462 171.296 83.7111 170.051 83.1036C168.778 82.496 167.395 82.0542 165.956 82.2199C165.375 82.3027 164.627 82.4408 164.157 82.8274C163.659 83.214 163.77 83.4901 163.687 84.1805C163.631 84.6776 164.461 84.6776 164.517 84.1529Z" fill="#404753"/>
<path d="M172.071 89.6481C171.988 91.7468 172.458 93.7903 171.96 95.889C171.49 97.822 170.549 99.6169 169.608 101.357C169.359 101.826 170.079 102.24 170.328 101.771C171.296 99.9483 172.265 98.0981 172.763 96.1099C173.289 93.956 172.818 91.8297 172.901 89.6481C172.929 89.0958 172.099 89.0958 172.071 89.6481Z" fill="#404753"/>
<path d="M169.608 101.384C168.972 115.937 173.15 130.186 172.486 144.739C172.458 145.263 173.288 145.263 173.316 144.739C173.98 130.186 169.802 115.937 170.438 101.384C170.466 100.859 169.636 100.859 169.608 101.384Z" fill="#404753"/>
<path d="M156.022 101.688C156.852 102.848 157.737 103.952 158.733 104.974C159.093 105.361 159.674 104.781 159.315 104.394C158.374 103.4 157.516 102.378 156.741 101.274C156.409 100.832 155.69 101.246 156.022 101.688Z" fill="#404753"/>
<path d="M159.204 104.753C157.627 113.728 156.852 122.841 156.879 131.953C156.907 136.482 157.129 141.038 157.571 145.54C157.931 149.378 158.374 153.41 160.394 156.779C162.22 159.844 165.43 162.163 169.083 162.081C169.608 162.053 169.608 161.225 169.083 161.252C163.963 161.39 160.67 156.834 159.481 152.36C158.152 147.445 158.042 142.088 157.848 137.034C157.433 126.32 158.18 115.55 160.034 105.002C160.089 104.449 159.287 104.228 159.204 104.753Z" fill="#404753"/>
<path d="M153.974 92.3543C151.373 94.5358 148.855 96.8278 146.475 99.2303C146.088 99.6169 146.696 100.197 147.056 99.8102C149.464 97.4077 151.954 95.1157 154.555 92.9342C154.97 92.6028 154.389 92.0229 153.974 92.3543Z" fill="#404753"/>
<path d="M146.226 99.9759C145.811 103.179 148.246 105.885 151.484 105.858C152.009 105.858 152.009 105.029 151.484 105.029C148.689 105.057 146.696 102.71 147.056 99.9759C147.139 99.4512 146.309 99.4512 146.226 99.9759Z" fill="#404753"/>
<path d="M147.001 99.7827C149.906 99.8655 151.926 102.461 151.318 105.278C151.207 105.803 152.009 106.024 152.12 105.499C152.867 102.102 150.487 99.0647 147.001 98.9542C146.475 98.9542 146.475 99.7827 147.001 99.7827Z" fill="#404753"/>
<path d="M152.452 105.361C155.607 102.489 158.816 99.6445 161.888 96.6898C163.299 95.3367 164.655 93.956 165.928 92.4648C166.62 91.664 168.363 90.09 168.391 88.9854C168.391 88.8473 168.308 88.6816 168.197 88.6264C168.142 88.5988 168.086 88.5712 168.059 88.5712C167.893 88.4883 167.671 88.4883 167.561 88.6264C167.533 88.654 167.505 88.6816 167.478 88.7369C167.146 89.1511 167.727 89.731 168.059 89.3168C168.086 89.2892 168.114 89.2615 168.142 89.2063C167.976 89.2339 167.81 89.2615 167.644 89.2615C167.588 89.013 167.505 89.013 167.395 89.2892C167.256 89.4825 167.118 89.6758 166.952 89.8691C166.62 90.2833 166.315 90.6975 165.956 91.1117C165.402 91.8021 164.793 92.4648 164.212 93.1276C162.995 94.453 161.722 95.6957 160.421 96.9107C157.599 99.5617 154.721 102.13 151.871 104.753C151.456 105.14 152.065 105.72 152.452 105.361Z" fill="#404753"/>
<path d="M152.812 93.9007C153.006 92.5752 153.199 91.2497 153.393 89.9242C153.531 88.9301 153.642 87.8255 154.195 86.9419C155.468 84.8984 157.267 86.362 158.235 87.7427C158.65 88.3226 159.038 88.9577 159.453 89.5376C159.674 89.869 160.753 91.0564 160.615 91.4706C160.753 91.3602 160.892 91.2773 161.003 91.1669C160.947 91.1669 160.92 91.1669 160.864 91.1669C160.338 91.1393 160.338 91.9677 160.864 91.9953C160.92 91.9953 160.947 91.9953 161.003 91.9953C161.196 91.9953 161.362 91.8572 161.39 91.6916C161.584 91.0012 161.113 90.587 160.753 90.0347C160.062 89.013 159.398 87.9636 158.678 86.9695C157.931 85.9478 156.963 84.9536 155.579 85.0917C154.251 85.2298 153.448 86.2515 153.033 87.4389C152.341 89.3996 152.286 91.6363 151.982 93.6798C151.926 94.2045 152.729 94.4254 152.812 93.9007Z" fill="#404753"/>
<path d="M154.112 90.7804C154.86 92.244 156.105 93.7352 157.876 93.8456C159.342 93.9561 160.726 93.1276 161.113 91.6917C161.252 91.167 160.449 90.9461 160.311 91.4708C159.951 92.7963 158.484 93.2933 157.267 92.8791C156.105 92.4649 155.358 91.4432 154.832 90.3938C154.583 89.8967 153.863 90.311 154.112 90.7804Z" fill="#404753"/>
<path d="M155.136 85.3956C155.275 84.0424 156.824 83.6835 157.876 84.0424C158.983 84.4014 159.84 85.3955 160.615 86.1964C161.224 86.8315 162.414 87.7152 162.58 88.5988C162.801 89.7862 161.307 90.5871 160.311 90.8908C159.813 91.0289 160.006 91.8297 160.532 91.6916C161.75 91.3326 163.521 90.2557 163.714 88.8197C163.797 88.2398 163.438 87.9361 163.05 87.5219C162.275 86.6934 161.528 85.8926 160.726 85.0918C159.647 83.9872 158.263 82.7998 156.603 83.0759C155.358 83.2692 154.444 84.0977 154.306 85.3679C154.251 85.9202 155.081 85.9202 155.136 85.3956Z" fill="#404753"/>
<path d="M156.63 83.3521C157.018 82.9102 157.212 82.3303 157.571 81.8885C158.457 80.7839 159.84 81.8057 160.753 82.4684C162.524 83.711 164.406 85.9754 162.801 88.1293C162.497 88.5712 163.216 88.9854 163.521 88.5436C165.236 86.2239 163.548 83.5454 161.584 82.0542C160.67 81.3638 159.287 80.1212 158.042 80.4802C156.935 80.7839 156.741 82.0542 156.049 82.7998C155.69 83.1588 156.271 83.7387 156.63 83.3521Z" fill="#404753"/>
<path d="M159.425 80.8391C160.394 79.6517 161.667 78.4091 163.161 79.6517C164.157 80.4525 164.793 81.5847 165.153 82.7721C165.319 83.2692 166.094 83.0759 165.956 82.5512C165.485 80.9496 164.406 79.0994 162.801 78.4367C161.169 77.7739 159.813 79.0718 158.844 80.2592C158.512 80.6458 159.093 81.2533 159.425 80.8391Z" fill="#404753"/>
<path d="M165.541 80.9496C167.256 79.486 168.972 78.0225 170.687 76.5865C171.102 76.2276 170.494 75.6476 170.106 76.0066C168.391 77.4702 166.675 78.9338 164.959 80.3697C164.544 80.7287 165.153 81.3086 165.541 80.9496Z" fill="#404753"/>
<path d="M171.656 84.4842C173.289 83.2968 174.866 82.0266 176.332 80.6459C176.72 80.2869 176.139 79.707 175.751 80.066C174.312 81.3914 172.818 82.6341 171.241 83.7663C170.798 84.07 171.213 84.788 171.656 84.4842Z" fill="#404753"/>
<path d="M184.08 82.4132C193.311 82.4132 200.794 74.9457 200.794 65.7341C200.794 56.5225 193.311 49.055 184.08 49.055C174.85 49.055 167.367 56.5225 167.367 65.7341C167.367 74.9457 174.85 82.4132 184.08 82.4132Z" stroke="#404753" stroke-width="3" stroke-miterlimit="10"/>
<path d="M173.953 67.7775C180.096 63.8563 186.377 60.156 192.797 56.6765C193.267 56.428 192.852 55.71 192.382 55.9586C185.962 59.4104 179.681 63.1107 173.538 67.0596C173.095 67.3633 173.51 68.0813 173.953 67.7775Z" fill="#404753"/>
<path d="M174.644 75.0125C179.708 71.3122 184.827 67.7499 190.057 64.2705C190.5 63.9667 190.085 63.2488 189.642 63.5525C184.44 67.0319 179.293 70.6218 174.229 74.2945C173.787 74.5983 174.202 75.3162 174.644 75.0125Z" fill="#404753"/>
</g>
<defs>
<clipPath id="clip0_518_5408">
<rect width="336" height="304" fill="white" transform="translate(0 0.5)"/>
</clipPath>
</defs>
</svg>
